<svg id="Layer_1" data-name="Layer 1" xmlns="http://www.w3.org/2000/svg" viewBox="0 0 406.88 84.05"><defs><style>.cls-1{fill:#212126;}</style></defs><title>black</title><path class="cls-1" d="M96.66,60.62V59.27c0-2.27,1.35-3.31,3.62-2.88,9.06,1.67,19.32,1.67,19.32-4.12,0-2.13-1.28-3.76-6.25-5.79l-4.44-1.92c-8.81-3.8-12-7.77-12-13.63,0-11.73,12.79-14.67,27.21-11.34A3.37,3.37,0,0,1,127,23.22v1.45c0,2.24-1.35,3.34-3.62,2.95-8.53-1.42-16.45-1.53-16.45,3.13,0,2.06,1.35,3.73,5.86,5.54L116.9,38c8.92,3.76,12.72,7.6,12.72,14.24,0,13.14-15.45,15.56-30.16,12A3.35,3.35,0,0,1,96.66,60.62Z" transform="translate(0 0)"/><path class="cls-1" d="M155.59,38.31h-9.66V52.24c0,3.62,1.6,5.15,5.5,5.15,1.89,0,3.09-.39,4.34-.39,2.2,0,3,.85,3,2.59v1.77a3.2,3.2,0,0,1-2.63,3.49c-11.29,2.69-20.31-.18-20.31-12.61V25.38a3,3,0,0,1,3.26-3.26h3.52a3,3,0,0,1,3.27,3.26v4.83h9.66a3,3,0,0,1,3.27,3.27V35A3,3,0,0,1,155.59,38.31Z" transform="translate(0 0)"/><path class="cls-1" d="M196,43.21V54.94c0,7.38-3.38,10.19-11,10.19h-8.06c-8.67,0-14-2.31-14-10.66s5.33-10.69,14-10.69h9.2v-.57c0-3.9-3.09-5.61-8.27-5.61a49.26,49.26,0,0,0-9.17,1.1c-2.24.43-3.59-.6-3.59-2.87V34.51c0-1.95,1.1-3.23,3.41-3.69a53.63,53.63,0,0,1,10.77-1.24C188.85,29.58,196,33.66,196,43.21Zm-9.88,11.23V50.85h-8.7c-4.3,0-5.19,1-5.19,3.62s.89,3.59,5.15,3.59h5.19C185.58,58.06,186.08,56.82,186.08,54.44Z" transform="translate(0 0)"/><path class="cls-1" d="M234.11,65.13H231c-2.06,0-3.66-.57-4.58-1.74L213.19,48.08V61.86a3,3,0,0,1-3.27,3.27h-3.34a3,3,0,0,1-3.27-3.27V18.67a3,3,0,0,1,3.27-3.27h3.34a3,3,0,0,1,3.27,3.27V45l13.18-13.18c.92-1.1,2.48-1.6,4.54-1.6h2.84c3.06,0,4.3,1.67,2.6,3.48l-13,12.76,13.5,15.16C238.34,63.53,237.09,65.13,234.11,65.13Z" transform="translate(0 0)"/><path class="cls-1" d="M275,65.13h-3.13c-2.06,0-3.65-.57-4.58-1.74L254,48.08V61.86a3,3,0,0,1-3.27,3.27h-3.34a3,3,0,0,1-3.26-3.27V18.67a3,3,0,0,1,3.26-3.27h3.34A3,3,0,0,1,254,18.67V45l13.18-13.18c.92-1.1,2.48-1.6,4.54-1.6h2.84c3.06,0,4.3,1.67,2.6,3.48l-13,12.76,13.5,15.16C279.19,63.53,277.94,65.13,275,65.13Z" transform="translate(0 0)"/><path class="cls-1" d="M286.3,54.94V29.15c0-7.39,3.44-10.2,11-10.2h3.52c15.48,0,23.58,5.44,23.58,23.09s-8.1,23.09-23.58,23.09h-3.52C289.74,65.13,286.3,62.32,286.3,54.94ZM314.43,42c0-11.47-3.77-14.67-11.48-14.67h-3.73c-2.45,0-2.91,1.32-2.91,3.38V53.34c0,2.06.46,3.37,2.91,3.37H303C310.66,56.71,314.43,53.51,314.43,42Z" transform="translate(0 0)"/><path class="cls-1" d="M355.81,50.89l-15,1.56c1.28,4,4.51,5.4,9.24,5.4a35,35,0,0,0,8.13-1.14c2.31-.53,3.7.46,3.7,2.77v1.07a3.43,3.43,0,0,1-2.77,3.66,42.41,42.41,0,0,1-10.8,1.56c-10.76,0-18-5.86-18-18.08,0-11.54,6.11-18.11,18-18.11,10,0,15.95,4.68,15.95,13.56C364.3,48.12,362.2,50.21,355.81,50.89ZM355,42.22c0-3.37-2.06-5.19-6.61-5.19-4.94,0-7.57,2.24-8.1,8.24L352.51,44C354.56,43.82,355,43.43,355,42.22Z" transform="translate(0 0)"/><path class="cls-1" d="M400.36,30.21h3.58c2.38,0,3.45,1.46,2.7,3.73l-7.1,21.56c-2.56,7.85-5.15,10.27-11.76,10.27S378.58,63.35,376,55.5L369,33.94c-.75-2.27.32-3.73,2.7-3.73h3.58A3.44,3.44,0,0,1,378.9,33l6,20.42c1,3,1.71,3.38,2.84,3.38s1.92-.4,2.84-3.38L396.7,33A3.44,3.44,0,0,1,400.36,30.21Z" transform="translate(0 0)"/><path class="cls-1" d="M46.65,4.46,39,.22a1.72,1.72,0,0,0-1.7,0L.64,21.3a1,1,0,0,0,0,1.79L22,35.65a1,1,0,0,0,1,0L51,19.42a1,1,0,0,1,1.05,0L54.68,21a.48.48,0,0,1,0,.84L27.45,37.52a.79.79,0,0,0,0,1.37l9.64,5.64a2,2,0,0,0,2,0L75.31,23.09a1,1,0,0,0,0-1.79l-23-13.36a1,1,0,0,0-1,0L25,23.06a1,1,0,0,1-1,0L21.4,21.55a.6.6,0,0,1,0-1L46.66,6.05A.92.92,0,0,0,46.65,4.46Z" transform="translate(0 0)"/><path class="cls-1" d="M38.39,49.33,63.18,35.11a.89.89,0,0,1,.89,0l11.42,6.68a.88.88,0,0,1,0,1.53L38.53,64.21a.9.9,0,0,1-.87,0L.45,43.33a.89.89,0,0,1,0-1.54l11.68-6.68a.87.87,0,0,1,.88,0L37.51,49.33A.87.87,0,0,0,38.39,49.33Z" transform="translate(0 0)"/><path class="cls-1" d="M38.39,69.05,63.18,54.83a.89.89,0,0,1,.89,0l11.42,6.68a.88.88,0,0,1,0,1.53L38.53,83.93a.85.85,0,0,1-.87,0L.45,63.06a.89.89,0,0,1,0-1.54l11.68-6.69a.89.89,0,0,1,.88,0L37.51,69.05A.87.87,0,0,0,38.39,69.05Z" transform="translate(0 0)"/></svg>